# Blender v2.83.0 OBJ File: 'Bow_Design_02.blend'
# www.blender.org
mtllib String_01.mtl
o bow_string_01_Cylinder.001
v -0.000000 -1.437429 0.053916
v -0.000000 1.437429 0.053916
v 0.011291 -1.437429 0.058593
v 0.011291 1.437429 0.058593
v 0.015968 -1.437429 0.069883
v 0.015968 1.437429 0.069883
v 0.011291 -1.437429 0.081174
v 0.011291 1.437429 0.081174
v -0.000000 -1.437429 0.085851
v -0.000000 1.437429 0.085851
v -0.011291 -1.437429 0.081174
v -0.011291 1.437429 0.081174
v -0.015968 -1.437429 0.069883
v -0.015968 1.437429 0.069883
v -0.011291 -1.437429 0.058593
v -0.011291 1.437429 0.058593
v -0.000000 -0.000000 0.053916
v 0.011291 -0.000000 0.058593
v 0.015968 -0.000000 0.069883
v 0.011291 -0.000000 0.081174
v -0.000000 -0.000000 0.085851
v -0.011291 -0.000000 0.081174
v -0.015968 -0.000000 0.069883
v -0.011291 -0.000000 0.058593
v 0.011291 -0.718715 0.058593
v 0.015968 -0.718715 0.069883
v 0.011291 -0.718715 0.081174
v -0.000000 -0.718715 0.085851
v -0.011291 -0.718715 0.081174
v -0.015968 -0.718715 0.069883
v -0.011291 -0.718715 0.058593
v -0.000000 -0.718715 0.053916
v -0.000000 0.718715 0.053916
v 0.011291 0.718715 0.058593
v 0.015968 0.718715 0.069883
v 0.011291 0.718715 0.081174
v -0.000000 0.718715 0.085851
v -0.011291 0.718715 0.081174
v -0.015968 0.718715 0.069883
v -0.011291 0.718715 0.058593
v -0.000000 -0.359357 0.053916
v 0.011291 -0.359357 0.058593
v 0.015968 -0.359357 0.069883
v 0.011291 -0.359357 0.081174
v -0.000000 -0.359357 0.085851
v -0.011291 -0.359357 0.081174
v -0.015968 -0.359357 0.069883
v -0.011291 -0.359357 0.058593
v 0.011291 0.359357 0.058593
v 0.015968 0.359357 0.069883
v 0.011291 0.359357 0.081174
v -0.000000 0.359357 0.085851
v -0.011291 0.359357 0.081174
v -0.015968 0.359357 0.069883
v -0.011291 0.359357 0.058593
v -0.000000 0.359357 0.053916
v 0.011291 -1.078072 0.058593
v 0.015968 -1.078072 0.069883
v 0.011291 -1.078072 0.081174
v -0.000000 -1.078072 0.085851
v -0.011291 -1.078072 0.081174
v -0.015968 -1.078072 0.069883
v -0.011291 -1.078072 0.058593
v -0.000000 -1.078072 0.053916
v -0.000000 1.078072 0.053916
v 0.011291 1.078072 0.058593
v 0.015968 1.078072 0.069883
v 0.011291 1.078072 0.081174
v -0.000000 1.078072 0.085851
v -0.011291 1.078072 0.081174
v -0.015968 1.078072 0.069883
v -0.011291 1.078072 0.058593
v -0.000000 -0.000000 0.053916
v 0.011291 -0.000000 0.058593
v 0.015968 -0.000000 0.069883
v 0.011291 -0.000000 0.081174
v -0.000000 -0.000000 0.085851
v -0.011291 -0.000000 0.081174
v -0.015968 -0.000000 0.069883
v -0.011291 -0.000000 0.058593
vt 0.025515 0.015313
vt 0.025515 0.015313
vt 0.017892 0.015313
vt 0.027093 0.015313
vt 0.021703 0.015313
vt 0.016313 0.015313
vt 0.017892 0.015313
vt 0.021703 0.015313
vt 0.027093 0.985794
vt 0.025515 0.864484
vt 0.027093 0.864484
vt 0.025515 0.985795
vt 0.021703 0.864484
vt 0.021703 0.985795
vt 0.017892 0.864484
vt 0.017892 0.985795
vt 0.016313 0.864484
vt 0.016313 0.985795
vt 0.017892 0.864484
vt 0.017892 0.985795
vt 0.021703 0.864484
vt 0.021703 0.985795
vt 0.025515 0.864484
vt 0.025515 0.985795
vt 0.025515 0.500554
vt 0.027093 0.379244
vt 0.025515 0.379244
vt 0.021703 0.500554
vt 0.021703 0.379244
vt 0.017892 0.500554
vt 0.017892 0.379244
vt 0.016313 0.500554
vt 0.016313 0.379244
vt 0.017892 0.500554
vt 0.017892 0.379244
vt 0.021703 0.500554
vt 0.021703 0.379244
vt 0.025515 0.500554
vt 0.025515 0.379244
vt 0.027093 0.500554
vt 0.027093 0.257934
vt 0.025515 0.136623
vt 0.027093 0.136623
vt 0.025515 0.257934
vt 0.021703 0.136623
vt 0.021703 0.257934
vt 0.017892 0.136623
vt 0.017892 0.257934
vt 0.016313 0.136623
vt 0.016313 0.257934
vt 0.017892 0.136623
vt 0.017892 0.257934
vt 0.021703 0.136623
vt 0.021703 0.257934
vt 0.025515 0.136623
vt 0.025515 0.257934
vt 0.025515 0.743174
vt 0.027093 0.621864
vt 0.025515 0.621864
vt 0.021703 0.743174
vt 0.021703 0.621864
vt 0.017892 0.743174
vt 0.017892 0.621864
vt 0.016313 0.743174
vt 0.016313 0.621864
vt 0.017892 0.743174
vt 0.017892 0.621864
vt 0.021703 0.743174
vt 0.021703 0.621864
vt 0.025515 0.743174
vt 0.025515 0.621864
vt 0.027093 0.743174
vn 0.0000 -1.0000 0.0000
vn -0.0000 0.0000 -1.0000
vn 0.7071 0.0000 -0.7071
vn 1.0000 0.0000 -0.0000
vn 0.7071 0.0000 0.7071
vn 0.0000 0.0000 1.0000
vn -0.7071 0.0000 0.7071
vn -1.0000 0.0000 -0.0000
vn 0.0000 1.0000 0.0000
vn -0.7071 0.0000 -0.7071
usemtl None
s off
f 15/1/1 3/2/1 7/3/1
f 15/1/1 1/4/1 3/2/1
f 3/2/1 5/5/1 7/3/1
f 7/3/1 9/6/1 11/7/1
f 11/7/1 13/8/1 7/3/1
f 13/8/1 15/1/1 7/3/1
s 1
f 2/9/2 66/10/3 65/11/2
f 4/12/3 67/13/4 66/10/3
f 6/14/4 68/15/5 67/13/4
f 8/16/5 69/17/6 68/15/5
f 10/18/6 70/19/7 69/17/6
f 12/20/7 71/21/8 70/19/7
f 8/16/9 6/14/9 14/22/9
f 14/22/8 72/23/10 71/21/8
f 16/24/10 65/11/2 72/23/10
f 24/25/10 41/26/2 48/27/10
f 23/28/8 48/27/10 47/29/8
f 22/30/7 47/29/8 46/31/7
f 21/32/6 46/31/7 45/33/6
f 20/34/5 45/33/6 44/35/5
f 19/36/4 44/35/5 43/37/4
f 18/38/3 43/37/4 42/39/3
f 17/40/2 42/39/3 41/26/2
f 32/41/2 57/42/3 64/43/2
f 25/44/3 58/45/4 57/42/3
f 26/46/4 59/47/5 58/45/4
f 27/48/5 60/49/6 59/47/5
f 28/50/6 61/51/7 60/49/6
f 29/52/7 62/53/8 61/51/7
f 30/54/8 63/55/10 62/53/8
f 31/56/10 64/43/2 63/55/10
f 40/57/10 56/58/2 55/59/10
f 39/60/8 55/59/10 54/61/8
f 38/62/7 54/61/8 53/63/7
f 37/64/6 53/63/7 52/65/6
f 36/66/5 52/65/6 51/67/5
f 35/68/4 51/67/5 50/69/4
f 34/70/3 50/69/4 49/71/3
f 33/72/2 49/71/3 56/58/2
f 41/26/2 25/44/3 32/41/2
f 42/39/3 26/46/4 25/44/3
f 43/37/4 27/48/5 26/46/4
f 44/35/5 28/50/6 27/48/5
f 45/33/6 29/52/7 28/50/6
f 46/31/7 30/54/8 29/52/7
f 47/29/8 31/56/10 30/54/8
f 48/27/10 32/41/2 31/56/10
f 56/58/2 18/38/3 17/40/2
f 49/71/3 19/36/4 18/38/3
f 50/69/4 20/34/5 19/36/4
f 51/67/5 21/32/6 20/34/5
f 52/65/6 22/30/7 21/32/6
f 53/63/7 23/28/8 22/30/7
f 54/61/8 24/25/10 23/28/8
f 55/59/10 17/40/2 24/25/10
f 63/55/10 1/4/2 15/1/10
f 62/53/8 15/1/10 13/8/8
f 61/51/7 13/8/8 11/7/7
f 60/49/6 11/7/7 9/6/6
f 59/47/5 9/6/6 7/3/5
f 58/45/4 7/3/5 5/5/4
f 57/42/3 5/5/4 3/2/3
f 64/43/2 3/2/3 1/4/2
f 72/23/10 33/72/2 40/57/10
f 71/21/8 40/57/10 39/60/8
f 70/19/7 39/60/8 38/62/7
f 69/17/6 38/62/7 37/64/6
f 68/15/5 37/64/6 36/66/5
f 67/13/4 36/66/5 35/68/4
f 66/10/3 35/68/4 34/70/3
f 65/11/2 34/70/3 33/72/2
f 2/9/2 4/12/3 66/10/3
f 4/12/3 6/14/4 67/13/4
f 6/14/4 8/16/5 68/15/5
f 8/16/5 10/18/6 69/17/6
f 10/18/6 12/20/7 70/19/7
f 12/20/7 14/22/8 71/21/8
f 6/14/9 4/12/9 14/22/9
f 4/12/9 2/9/9 14/22/9
f 2/9/9 16/24/9 14/22/9
f 14/22/9 12/20/9 10/18/9
f 10/18/9 8/16/9 14/22/9
f 14/22/8 16/24/10 72/23/10
f 16/24/10 2/9/2 65/11/2
f 24/25/10 17/40/2 41/26/2
f 23/28/8 24/25/10 48/27/10
f 22/30/7 23/28/8 47/29/8
f 21/32/6 22/30/7 46/31/7
f 20/34/5 21/32/6 45/33/6
f 19/36/4 20/34/5 44/35/5
f 18/38/3 19/36/4 43/37/4
f 17/40/2 18/38/3 42/39/3
f 32/41/2 25/44/3 57/42/3
f 25/44/3 26/46/4 58/45/4
f 26/46/4 27/48/5 59/47/5
f 27/48/5 28/50/6 60/49/6
f 28/50/6 29/52/7 61/51/7
f 29/52/7 30/54/8 62/53/8
f 30/54/8 31/56/10 63/55/10
f 31/56/10 32/41/2 64/43/2
f 40/57/10 33/72/2 56/58/2
f 39/60/8 40/57/10 55/59/10
f 38/62/7 39/60/8 54/61/8
f 37/64/6 38/62/7 53/63/7
f 36/66/5 37/64/6 52/65/6
f 35/68/4 36/66/5 51/67/5
f 34/70/3 35/68/4 50/69/4
f 33/72/2 34/70/3 49/71/3
f 41/26/2 42/39/3 25/44/3
f 42/39/3 43/37/4 26/46/4
f 43/37/4 44/35/5 27/48/5
f 44/35/5 45/33/6 28/50/6
f 45/33/6 46/31/7 29/52/7
f 46/31/7 47/29/8 30/54/8
f 47/29/8 48/27/10 31/56/10
f 48/27/10 41/26/2 32/41/2
f 56/58/2 49/71/3 18/38/3
f 49/71/3 50/69/4 19/36/4
f 50/69/4 51/67/5 20/34/5
f 51/67/5 52/65/6 21/32/6
f 52/65/6 53/63/7 22/30/7
f 53/63/7 54/61/8 23/28/8
f 54/61/8 55/59/10 24/25/10
f 55/59/10 56/58/2 17/40/2
f 63/55/10 64/43/2 1/4/2
f 62/53/8 63/55/10 15/1/10
f 61/51/7 62/53/8 13/8/8
f 60/49/6 61/51/7 11/7/7
f 59/47/5 60/49/6 9/6/6
f 58/45/4 59/47/5 7/3/5
f 57/42/3 58/45/4 5/5/4
f 64/43/2 57/42/3 3/2/3
f 72/23/10 65/11/2 33/72/2
f 71/21/8 72/23/10 40/57/10
f 70/19/7 71/21/8 39/60/8
f 69/17/6 70/19/7 38/62/7
f 68/15/5 69/17/6 37/64/6
f 67/13/4 68/15/5 36/66/5
f 66/10/3 67/13/4 35/68/4
f 65/11/2 66/10/3 34/70/3
l 80 73
l 79 80
l 78 79
l 77 78
l 76 77
l 75 76
l 74 75
l 73 74
