# Blender v2.83.0 OBJ File: 'Bow_Design_02.blend'
# www.blender.org
mtllib String_03.mtl
o bow_string_03_Cylinder.005
v -0.000000 -1.437429 0.056968
v -0.000000 1.437429 0.056968
v 0.011291 -1.437429 0.061669
v 0.011291 1.437429 0.061669
v 0.015968 -1.437429 0.073019
v 0.015968 1.437429 0.073019
v 0.011291 -1.437429 0.084369
v 0.011291 1.437429 0.084369
v -0.000000 -1.437429 0.089070
v -0.000000 1.437429 0.089070
v -0.011291 -1.437429 0.084369
v -0.011291 1.437429 0.084369
v -0.015968 -1.437429 0.073019
v -0.015968 1.437429 0.073019
v -0.011291 -1.437429 0.061669
v -0.011291 1.437429 0.061669
v -0.000000 -0.000000 0.322158
v 0.011291 -0.000000 0.326845
v 0.015968 -0.000000 0.338161
v 0.011291 -0.000000 0.349476
v -0.000000 -0.000000 0.354163
v -0.011291 -0.000000 0.349476
v -0.015968 -0.000000 0.338161
v -0.011291 -0.000000 0.326845
v 0.011291 -0.718715 0.184370
v 0.015968 -0.718715 0.195734
v 0.011291 -0.718715 0.207097
v -0.000000 -0.718715 0.211804
v -0.011291 -0.718715 0.207097
v -0.015968 -0.718715 0.195734
v -0.011291 -0.718715 0.184370
v -0.000000 -0.718715 0.179664
v -0.000000 0.718715 0.179664
v 0.011291 0.718715 0.184370
v 0.015968 0.718715 0.195734
v 0.011291 0.718715 0.207097
v -0.000000 0.718715 0.211804
v -0.011291 0.718715 0.207097
v -0.015968 0.718715 0.195734
v -0.011291 0.718715 0.184370
v -0.000000 -0.359357 0.250886
v 0.011291 -0.359357 0.255592
v 0.015968 -0.359357 0.266960
v 0.011291 -0.359357 0.278321
v -0.000000 -0.359357 0.283021
v -0.011291 -0.359357 0.278321
v -0.015968 -0.359357 0.266960
v -0.011291 -0.359357 0.255592
v 0.011291 0.359357 0.255592
v 0.015968 0.359357 0.266960
v 0.011291 0.359357 0.278321
v -0.000000 0.359357 0.283021
v -0.011291 0.359357 0.278321
v -0.015968 0.359357 0.266960
v -0.011291 0.359357 0.255592
v -0.000000 0.359357 0.250886
v 0.011291 -1.078072 0.123017
v 0.015968 -1.078072 0.134366
v 0.011291 -1.078072 0.145716
v -0.000000 -1.078072 0.150417
v -0.011291 -1.078072 0.145716
v -0.015968 -1.078072 0.134366
v -0.011291 -1.078072 0.123017
v -0.000000 -1.078072 0.118316
v -0.000000 1.078072 0.118316
v 0.011291 1.078072 0.123017
v 0.015968 1.078072 0.134366
v 0.011291 1.078072 0.145716
v -0.000000 1.078072 0.150417
v -0.011291 1.078072 0.145716
v -0.015968 1.078072 0.134366
v -0.011291 1.078072 0.123017
v -0.000000 -0.000000 0.322158
v 0.011291 -0.000000 0.326845
v 0.015968 -0.000000 0.338161
v 0.011291 -0.000000 0.349476
v -0.000000 -0.000000 0.354163
v -0.011291 -0.000000 0.349476
v -0.015968 -0.000000 0.338161
v -0.011291 -0.000000 0.326845
v -0.000000 -0.000000 0.322158
v 0.011291 -0.000000 0.326845
v 0.015968 -0.000000 0.338161
v 0.011291 -0.000000 0.349476
v -0.000000 -0.000000 0.354163
v -0.011291 -0.000000 0.349476
v -0.015968 -0.000000 0.338161
v -0.011291 -0.000000 0.326845
vt 0.025515 0.015313
vt 0.025515 0.015313
vt 0.017892 0.015313
vt 0.027093 0.015313
vt 0.021703 0.015313
vt 0.016313 0.015313
vt 0.017892 0.015313
vt 0.021703 0.015313
vt 0.027093 0.985794
vt 0.025515 0.864484
vt 0.027093 0.864484
vt 0.025515 0.985795
vt 0.021703 0.864484
vt 0.021703 0.985795
vt 0.017892 0.864484
vt 0.017892 0.985795
vt 0.016313 0.864484
vt 0.016313 0.985795
vt 0.017892 0.864484
vt 0.017892 0.985795
vt 0.021703 0.864484
vt 0.021703 0.985795
vt 0.025515 0.864484
vt 0.025515 0.985795
vt 0.025515 0.500554
vt 0.027093 0.379244
vt 0.025515 0.379244
vt 0.021703 0.500554
vt 0.021703 0.379244
vt 0.017892 0.500554
vt 0.017892 0.379244
vt 0.016313 0.500554
vt 0.016313 0.379244
vt 0.017892 0.500554
vt 0.017892 0.379244
vt 0.021703 0.500554
vt 0.021703 0.379244
vt 0.025515 0.500554
vt 0.025515 0.379244
vt 0.027093 0.500554
vt 0.027093 0.257934
vt 0.025515 0.136623
vt 0.027093 0.136623
vt 0.025515 0.257934
vt 0.021703 0.136623
vt 0.021703 0.257934
vt 0.017892 0.136623
vt 0.017892 0.257934
vt 0.016313 0.136623
vt 0.016313 0.257934
vt 0.017892 0.136623
vt 0.017892 0.257934
vt 0.021703 0.136623
vt 0.021703 0.257934
vt 0.025515 0.136623
vt 0.025515 0.257934
vt 0.025515 0.743174
vt 0.027093 0.621864
vt 0.025515 0.621864
vt 0.021703 0.743174
vt 0.021703 0.621864
vt 0.017892 0.743174
vt 0.017892 0.621864
vt 0.016313 0.743174
vt 0.016313 0.621864
vt 0.017892 0.743174
vt 0.017892 0.621864
vt 0.021703 0.743174
vt 0.021703 0.621864
vt 0.025515 0.743174
vt 0.025515 0.621864
vt 0.027093 0.743174
vn 0.0000 -1.0000 0.0000
vn 0.0000 -0.1683 -0.9857
vn 0.7048 -0.1194 -0.6993
vn 0.6832 -0.1229 -0.7198
vn 1.0000 0.0000 -0.0000
vn 0.9991 -0.0070 -0.0409
vn 0.7048 0.1194 0.6993
vn 0.7246 0.1160 0.6793
vn -0.0000 0.1683 0.9857
vn -0.7048 0.1194 0.6993
vn -0.7246 0.1160 0.6793
vn -1.0000 0.0000 -0.0000
vn 0.0000 1.0000 0.0000
vn -0.9991 -0.0070 -0.0409
vn -0.7048 -0.1194 -0.6993
vn -0.6832 -0.1229 -0.7198
vn -0.7322 0.0000 -0.6811
vn 0.0000 0.1945 -0.9809
vn -0.7039 0.1381 -0.6967
vn -0.9989 -0.0000 0.0475
vn -1.0000 -0.0000 0.0001
vn -0.6847 -0.0000 0.7288
vn -0.7037 -0.1381 0.6970
vn 0.0000 -0.0000 1.0000
vn -0.0000 -0.1943 0.9809
vn 0.6847 0.0000 0.7288
vn 0.7037 -0.1381 0.6970
vn 0.9989 0.0000 0.0475
vn 1.0000 -0.0000 0.0001
vn 0.7322 -0.0000 -0.6811
vn 0.7039 0.1381 -0.6967
vn 0.0000 0.0000 -1.0000
vn -0.0000 0.1808 -0.9835
vn 0.7048 0.1194 -0.6993
vn -0.0000 0.1683 -0.9857
vn 0.7029 0.1290 -0.6995
vn 1.0000 0.0012 -0.0032
vn 0.7048 -0.1194 0.6993
vn 0.7061 -0.1285 0.6963
vn 0.0000 -0.1683 0.9857
vn -0.0000 -0.1820 0.9833
vn -0.7048 -0.1194 0.6993
vn -0.7061 -0.1285 0.6964
vn -1.0000 0.0012 -0.0032
vn -0.7048 0.1194 -0.6993
vn -0.7029 0.1290 -0.6995
vn -0.7029 -0.1290 -0.6995
vn -0.0000 -0.1945 -0.9809
vn -0.7039 -0.1381 -0.6967
vn -1.0000 -0.0012 -0.0032
vn -0.7061 0.1285 0.6963
vn -0.7037 0.1381 0.6970
vn 0.0000 0.1820 0.9833
vn 0.0000 0.1943 0.9809
vn 0.7061 0.1285 0.6964
vn 0.7037 0.1381 0.6970
vn 1.0000 -0.0012 -0.0032
vn 0.7029 -0.1290 -0.6995
vn 0.7039 -0.1381 -0.6967
vn 0.0000 -0.1808 -0.9835
vn -0.6832 0.1229 -0.7198
vn -0.9991 0.0070 -0.0409
vn -0.7246 -0.1160 0.6793
vn 0.7246 -0.1160 0.6793
vn 0.9991 0.0070 -0.0409
vn 0.6832 0.1229 -0.7198
usemtl None
s off
f 15/1/1 3/2/1 7/3/1
f 15/1/1 1/4/1 3/2/1
f 3/2/1 5/5/1 7/3/1
f 7/3/1 9/6/1 11/7/1
f 11/7/1 13/8/1 7/3/1
f 13/8/1 15/1/1 7/3/1
s 1
f 2/9/2 66/10/3 65/11/2
f 4/12/4 67/13/5 66/10/3
f 6/14/6 68/15/7 67/13/5
f 8/16/8 69/17/9 68/15/7
f 10/18/9 70/19/10 69/17/9
f 12/20/11 71/21/12 70/19/10
f 8/16/13 6/14/13 14/22/13
f 14/22/14 72/23/15 71/21/12
f 16/24/16 65/11/2 72/23/15
f 24/25/17 41/26/18 48/27/19
f 23/28/20 48/27/19 47/29/21
f 22/30/22 47/29/21 46/31/23
f 21/32/24 46/31/23 45/33/25
f 20/34/26 45/33/25 44/35/27
f 19/36/28 44/35/27 43/37/29
f 18/38/30 43/37/29 42/39/31
f 17/40/32 42/39/31 41/26/18
f 32/41/33 57/42/34 64/43/35
f 25/44/36 58/45/5 57/42/34
f 26/46/37 59/47/38 58/45/5
f 27/48/39 60/49/40 59/47/38
f 28/50/41 61/51/42 60/49/40
f 29/52/43 62/53/12 61/51/42
f 30/54/44 63/55/45 62/53/12
f 31/56/46 64/43/35 63/55/45
f 40/57/47 56/58/48 55/59/49
f 39/60/50 55/59/49 54/61/21
f 38/62/51 54/61/21 53/63/52
f 37/64/53 53/63/52 52/65/54
f 36/66/55 52/65/54 51/67/56
f 35/68/57 51/67/56 50/69/29
f 34/70/58 50/69/29 49/71/59
f 33/72/60 49/71/59 56/58/48
f 41/26/18 25/44/36 32/41/33
f 42/39/31 26/46/37 25/44/36
f 43/37/29 27/48/39 26/46/37
f 44/35/27 28/50/41 27/48/39
f 45/33/25 29/52/43 28/50/41
f 46/31/23 30/54/44 29/52/43
f 47/29/21 31/56/46 30/54/44
f 48/27/19 32/41/33 31/56/46
f 56/58/48 18/38/30 17/40/32
f 49/71/59 19/36/28 18/38/30
f 50/69/29 20/34/26 19/36/28
f 51/67/56 21/32/24 20/34/26
f 52/65/54 22/30/22 21/32/24
f 53/63/52 23/28/20 22/30/22
f 54/61/21 24/25/17 23/28/20
f 55/59/49 17/40/32 24/25/17
f 63/55/45 1/4/35 15/1/61
f 62/53/12 15/1/61 13/8/62
f 61/51/42 13/8/62 11/7/63
f 60/49/40 11/7/63 9/6/40
f 59/47/38 9/6/40 7/3/64
f 58/45/5 7/3/64 5/5/65
f 57/42/34 5/5/65 3/2/66
f 64/43/35 3/2/66 1/4/35
f 72/23/15 33/72/60 40/57/47
f 71/21/12 40/57/47 39/60/50
f 70/19/10 39/60/50 38/62/51
f 69/17/9 38/62/51 37/64/53
f 68/15/7 37/64/53 36/66/55
f 67/13/5 36/66/55 35/68/57
f 66/10/3 35/68/57 34/70/58
f 65/11/2 34/70/58 33/72/60
f 2/9/2 4/12/4 66/10/3
f 4/12/4 6/14/6 67/13/5
f 6/14/6 8/16/8 68/15/7
f 8/16/8 10/18/9 69/17/9
f 10/18/9 12/20/11 70/19/10
f 12/20/11 14/22/14 71/21/12
f 6/14/13 4/12/13 14/22/13
f 4/12/13 2/9/13 14/22/13
f 2/9/13 16/24/13 14/22/13
f 14/22/13 12/20/13 10/18/13
f 10/18/13 8/16/13 14/22/13
f 14/22/14 16/24/16 72/23/15
f 16/24/16 2/9/2 65/11/2
f 24/25/17 17/40/32 41/26/18
f 23/28/20 24/25/17 48/27/19
f 22/30/22 23/28/20 47/29/21
f 21/32/24 22/30/22 46/31/23
f 20/34/26 21/32/24 45/33/25
f 19/36/28 20/34/26 44/35/27
f 18/38/30 19/36/28 43/37/29
f 17/40/32 18/38/30 42/39/31
f 32/41/33 25/44/36 57/42/34
f 25/44/36 26/46/37 58/45/5
f 26/46/37 27/48/39 59/47/38
f 27/48/39 28/50/41 60/49/40
f 28/50/41 29/52/43 61/51/42
f 29/52/43 30/54/44 62/53/12
f 30/54/44 31/56/46 63/55/45
f 31/56/46 32/41/33 64/43/35
f 40/57/47 33/72/60 56/58/48
f 39/60/50 40/57/47 55/59/49
f 38/62/51 39/60/50 54/61/21
f 37/64/53 38/62/51 53/63/52
f 36/66/55 37/64/53 52/65/54
f 35/68/57 36/66/55 51/67/56
f 34/70/58 35/68/57 50/69/29
f 33/72/60 34/70/58 49/71/59
f 41/26/18 42/39/31 25/44/36
f 42/39/31 43/37/29 26/46/37
f 43/37/29 44/35/27 27/48/39
f 44/35/27 45/33/25 28/50/41
f 45/33/25 46/31/23 29/52/43
f 46/31/23 47/29/21 30/54/44
f 47/29/21 48/27/19 31/56/46
f 48/27/19 41/26/18 32/41/33
f 56/58/48 49/71/59 18/38/30
f 49/71/59 50/69/29 19/36/28
f 50/69/29 51/67/56 20/34/26
f 51/67/56 52/65/54 21/32/24
f 52/65/54 53/63/52 22/30/22
f 53/63/52 54/61/21 23/28/20
f 54/61/21 55/59/49 24/25/17
f 55/59/49 56/58/48 17/40/32
f 63/55/45 64/43/35 1/4/35
f 62/53/12 63/55/45 15/1/61
f 61/51/42 62/53/12 13/8/62
f 60/49/40 61/51/42 11/7/63
f 59/47/38 60/49/40 9/6/40
f 58/45/5 59/47/38 7/3/64
f 57/42/34 58/45/5 5/5/65
f 64/43/35 57/42/34 3/2/66
f 72/23/15 65/11/2 33/72/60
f 71/21/12 72/23/15 40/57/47
f 70/19/10 71/21/12 39/60/50
f 69/17/9 70/19/10 38/62/51
f 68/15/7 69/17/9 37/64/53
f 67/13/5 68/15/7 36/66/55
f 66/10/3 67/13/5 35/68/57
f 65/11/2 66/10/3 34/70/58
l 80 73
l 79 80
l 78 79
l 77 78
l 76 77
l 75 76
l 74 75
l 73 74
l 88 81
l 87 88
l 86 87
l 85 86
l 84 85
l 83 84
l 82 83
l 81 82
