# Blender v2.83.0 OBJ File: 'bow_design_04.blend'
# www.blender.org
mtllib string_01.mtl
o bow_string_01_bow_string_01_bow_string_01_Cylinder.001
v -0.011291 -1.437429 0.058593
v 0.011291 -1.437429 0.058593
v 0.011291 -1.437429 0.081174
v 0.000000 -1.437429 0.053916
v 0.015968 -1.437429 0.069883
v 0.000000 -1.437429 0.085851
v -0.011291 -1.437429 0.081174
v -0.015968 -1.437429 0.069883
v 0.000000 1.437429 0.053916
v 0.011291 1.078072 0.058593
v 0.000000 1.078072 0.053916
v 0.011291 1.437429 0.058593
v 0.015968 1.078072 0.069883
v 0.015968 1.437429 0.069883
v 0.011291 1.078072 0.081174
v 0.011291 1.437429 0.081174
v 0.000000 1.078072 0.085851
v 0.000000 1.437429 0.085851
v -0.011291 1.078072 0.081174
v -0.011291 1.437429 0.081174
v -0.015968 1.078072 0.069883
v -0.015968 1.437429 0.069883
v -0.011291 1.078072 0.058593
v -0.011291 1.437429 0.058593
v -0.011291 -0.000000 0.058593
v 0.000000 -0.359357 0.053916
v -0.011291 -0.359357 0.058593
v -0.015968 -0.000000 0.069883
v -0.015968 -0.359357 0.069883
v -0.011291 -0.359357 0.081174
v 0.000000 -0.359357 0.085851
v 0.011291 -0.359357 0.081174
v 0.015968 -0.000000 0.069883
v 0.015968 -0.359357 0.069883
v 0.011291 -0.000000 0.058593
v 0.011291 -0.359357 0.058593
v 0.000000 -0.718715 0.053916
v 0.011291 -1.078072 0.058593
v 0.000000 -1.078072 0.053916
v 0.011291 -0.718715 0.058593
v 0.015968 -1.078072 0.069883
v 0.015968 -0.718715 0.069883
v 0.011291 -1.078072 0.081174
v 0.011291 -0.718715 0.081174
v 0.000000 -1.078072 0.085851
v 0.000000 -0.718715 0.085851
v -0.011291 -1.078072 0.081174
v -0.011291 -0.718715 0.081174
v -0.015968 -1.078072 0.069883
v -0.015968 -0.718715 0.069883
v -0.011291 -1.078072 0.058593
v -0.011291 -0.718715 0.058593
v -0.011291 0.718715 0.058593
v 0.000000 0.359357 0.053916
v -0.011291 0.359357 0.058593
v -0.015968 0.718715 0.069883
v -0.015968 0.359357 0.069883
v -0.011291 0.718715 0.081174
v -0.011291 0.359357 0.081174
v 0.000000 0.718715 0.085851
v 0.000000 0.359357 0.085851
v 0.011291 0.718715 0.081174
v 0.011291 0.359357 0.081174
v 0.015968 0.718715 0.069883
v 0.015968 0.359357 0.069883
v 0.011291 0.718715 0.058593
v 0.011291 0.359357 0.058593
v 0.000000 0.718715 0.053916
v 0.000000 -0.000000 0.053916
v 0.011291 -0.000000 0.081174
v 0.000000 -0.000000 0.085851
v -0.011291 -0.000000 0.081174
vt 0.948425 0.039744
vt 0.948425 0.039744
vt 0.937924 0.039744
vt 0.950599 0.039744
vt 0.943174 0.039744
vt 0.935749 0.039744
vt 0.937924 0.039744
vt 0.943174 0.039744
vt 0.950599 0.955880
vt 0.948425 0.841363
vt 0.950599 0.841363
vt 0.948425 0.955881
vt 0.943174 0.841363
vt 0.943174 0.955881
vt 0.937924 0.841363
vt 0.937924 0.955881
vt 0.935749 0.841363
vt 0.935749 0.955881
vt 0.937924 0.841363
vt 0.937924 0.955881
vt 0.943174 0.841363
vt 0.943174 0.955881
vt 0.948425 0.841363
vt 0.948425 0.955881
vt 0.948425 0.497813
vt 0.950599 0.383296
vt 0.948425 0.383296
vt 0.943174 0.497813
vt 0.943174 0.383296
vt 0.937924 0.497813
vt 0.937924 0.383296
vt 0.935749 0.497813
vt 0.935749 0.383296
vt 0.937924 0.497813
vt 0.937924 0.383296
vt 0.943174 0.497813
vt 0.943174 0.383296
vt 0.948425 0.497813
vt 0.948425 0.383296
vt 0.950599 0.497813
vt 0.950599 0.268779
vt 0.948425 0.154261
vt 0.950599 0.154261
vt 0.948425 0.268779
vt 0.943174 0.154261
vt 0.943174 0.268779
vt 0.937924 0.154261
vt 0.937924 0.268779
vt 0.935749 0.154261
vt 0.935749 0.268779
vt 0.937924 0.154261
vt 0.937924 0.268779
vt 0.943174 0.154261
vt 0.943174 0.268779
vt 0.948425 0.154261
vt 0.948425 0.268779
vt 0.948425 0.726847
vt 0.950599 0.612330
vt 0.948425 0.612330
vt 0.943174 0.726847
vt 0.943174 0.612330
vt 0.937924 0.726847
vt 0.937924 0.612330
vt 0.935749 0.726847
vt 0.935749 0.612330
vt 0.937924 0.726847
vt 0.937924 0.612330
vt 0.943174 0.726847
vt 0.943174 0.612330
vt 0.948425 0.726847
vt 0.948425 0.612330
vt 0.950599 0.726847
vn 0.0000 -1.0000 0.0000
vn 0.0000 0.0000 -1.0000
vn 0.7071 0.0000 -0.7071
vn 1.0000 0.0000 -0.0000
vn 0.7071 -0.0000 0.7071
vn 0.0000 -0.0000 1.0000
vn -0.7071 -0.0000 0.7071
vn -1.0000 -0.0000 -0.0000
vn 0.0000 1.0000 0.0000
vn -0.7071 0.0000 -0.7071
usemtl None
s off
f 1/1/1 2/2/1 3/3/1
f 1/1/1 4/4/1 2/2/1
f 2/2/1 5/5/1 3/3/1
f 3/3/1 6/6/1 7/7/1
f 7/7/1 8/8/1 3/3/1
f 8/8/1 1/1/1 3/3/1
s 1
f 9/9/2 10/10/3 11/11/2
f 12/12/3 13/13/4 10/10/3
f 14/14/4 15/15/5 13/13/4
f 16/16/5 17/17/6 15/15/5
f 18/18/6 19/19/7 17/17/6
f 20/20/7 21/21/8 19/19/7
f 16/16/9 14/14/9 22/22/9
f 22/22/8 23/23/10 21/21/8
f 24/24/10 11/11/2 23/23/10
f 25/25/10 26/26/2 27/27/10
f 28/28/8 27/27/10 29/29/8
f 72/30/7 29/29/8 30/31/7
f 71/32/6 30/31/7 31/33/6
f 70/34/5 31/33/6 32/35/5
f 33/36/4 32/35/5 34/37/4
f 35/38/3 34/37/4 36/39/3
f 69/40/2 36/39/3 26/26/2
f 37/41/2 38/42/3 39/43/2
f 40/44/3 41/45/4 38/42/3
f 42/46/4 43/47/5 41/45/4
f 44/48/5 45/49/6 43/47/5
f 46/50/6 47/51/7 45/49/6
f 48/52/7 49/53/8 47/51/7
f 50/54/8 51/55/10 49/53/8
f 52/56/10 39/43/2 51/55/10
f 53/57/10 54/58/2 55/59/10
f 56/60/8 55/59/10 57/61/8
f 58/62/7 57/61/8 59/63/7
f 60/64/6 59/63/7 61/65/6
f 62/66/5 61/65/6 63/67/5
f 64/68/4 63/67/5 65/69/4
f 66/70/3 65/69/4 67/71/3
f 68/72/2 67/71/3 54/58/2
f 26/26/2 40/44/3 37/41/2
f 36/39/3 42/46/4 40/44/3
f 34/37/4 44/48/5 42/46/4
f 32/35/5 46/50/6 44/48/5
f 31/33/6 48/52/7 46/50/6
f 30/31/7 50/54/8 48/52/7
f 29/29/8 52/56/10 50/54/8
f 27/27/10 37/41/2 52/56/10
f 54/58/2 35/38/3 69/40/2
f 67/71/3 33/36/4 35/38/3
f 65/69/4 70/34/5 33/36/4
f 63/67/5 71/32/6 70/34/5
f 61/65/6 72/30/7 71/32/6
f 59/63/7 28/28/8 72/30/7
f 57/61/8 25/25/10 28/28/8
f 55/59/10 69/40/2 25/25/10
f 51/55/10 4/4/2 1/1/10
f 49/53/8 1/1/10 8/8/8
f 47/51/7 8/8/8 7/7/7
f 45/49/6 7/7/7 6/6/6
f 43/47/5 6/6/6 3/3/5
f 41/45/4 3/3/5 5/5/4
f 38/42/3 5/5/4 2/2/3
f 39/43/2 2/2/3 4/4/2
f 23/23/10 68/72/2 53/57/10
f 21/21/8 53/57/10 56/60/8
f 19/19/7 56/60/8 58/62/7
f 17/17/6 58/62/7 60/64/6
f 15/15/5 60/64/6 62/66/5
f 13/13/4 62/66/5 64/68/4
f 10/10/3 64/68/4 66/70/3
f 11/11/2 66/70/3 68/72/2
f 9/9/2 12/12/3 10/10/3
f 12/12/3 14/14/4 13/13/4
f 14/14/4 16/16/5 15/15/5
f 16/16/5 18/18/6 17/17/6
f 18/18/6 20/20/7 19/19/7
f 20/20/7 22/22/8 21/21/8
f 14/14/9 12/12/9 22/22/9
f 12/12/9 9/9/9 22/22/9
f 9/9/9 24/24/9 22/22/9
f 22/22/9 20/20/9 18/18/9
f 18/18/9 16/16/9 22/22/9
f 22/22/8 24/24/10 23/23/10
f 24/24/10 9/9/2 11/11/2
f 25/25/10 69/40/2 26/26/2
f 28/28/8 25/25/10 27/27/10
f 72/30/7 28/28/8 29/29/8
f 71/32/6 72/30/7 30/31/7
f 70/34/5 71/32/6 31/33/6
f 33/36/4 70/34/5 32/35/5
f 35/38/3 33/36/4 34/37/4
f 69/40/2 35/38/3 36/39/3
f 37/41/2 40/44/3 38/42/3
f 40/44/3 42/46/4 41/45/4
f 42/46/4 44/48/5 43/47/5
f 44/48/5 46/50/6 45/49/6
f 46/50/6 48/52/7 47/51/7
f 48/52/7 50/54/8 49/53/8
f 50/54/8 52/56/10 51/55/10
f 52/56/10 37/41/2 39/43/2
f 53/57/10 68/72/2 54/58/2
f 56/60/8 53/57/10 55/59/10
f 58/62/7 56/60/8 57/61/8
f 60/64/6 58/62/7 59/63/7
f 62/66/5 60/64/6 61/65/6
f 64/68/4 62/66/5 63/67/5
f 66/70/3 64/68/4 65/69/4
f 68/72/2 66/70/3 67/71/3
f 26/26/2 36/39/3 40/44/3
f 36/39/3 34/37/4 42/46/4
f 34/37/4 32/35/5 44/48/5
f 32/35/5 31/33/6 46/50/6
f 31/33/6 30/31/7 48/52/7
f 30/31/7 29/29/8 50/54/8
f 29/29/8 27/27/10 52/56/10
f 27/27/10 26/26/2 37/41/2
f 54/58/2 67/71/3 35/38/3
f 67/71/3 65/69/4 33/36/4
f 65/69/4 63/67/5 70/34/5
f 63/67/5 61/65/6 71/32/6
f 61/65/6 59/63/7 72/30/7
f 59/63/7 57/61/8 28/28/8
f 57/61/8 55/59/10 25/25/10
f 55/59/10 54/58/2 69/40/2
f 51/55/10 39/43/2 4/4/2
f 49/53/8 51/55/10 1/1/10
f 47/51/7 49/53/8 8/8/8
f 45/49/6 47/51/7 7/7/7
f 43/47/5 45/49/6 6/6/6
f 41/45/4 43/47/5 3/3/5
f 38/42/3 41/45/4 5/5/4
f 39/43/2 38/42/3 2/2/3
f 23/23/10 11/11/2 68/72/2
f 21/21/8 23/23/10 53/57/10
f 19/19/7 21/21/8 56/60/8
f 17/17/6 19/19/7 58/62/7
f 15/15/5 17/17/6 60/64/6
f 13/13/4 15/15/5 62/66/5
f 10/10/3 13/13/4 64/68/4
f 11/11/2 10/10/3 66/70/3
