# Blender v2.83.0 OBJ File: 'bow_design_04.blend'
# www.blender.org
mtllib string_04.mtl
o bow_string_04_bow_string_04_bow_string_04_Cylinder.006
v -0.011291 -1.437429 0.056310
v 0.011291 -1.437429 0.056310
v 0.011291 -1.437429 0.079331
v 0.000000 -1.437429 0.051542
v 0.015968 -1.437429 0.067820
v 0.000000 -1.437429 0.084099
v -0.011291 -1.437429 0.079331
v -0.015968 -1.437429 0.067820
v 0.000000 1.437429 0.051542
v 0.011291 1.078072 0.154140
v 0.000000 1.078072 0.149373
v 0.011291 1.437429 0.056310
v 0.015968 1.078072 0.165649
v 0.015968 1.437429 0.067820
v 0.011291 1.078072 0.177158
v 0.011291 1.437429 0.079331
v 0.000000 1.078072 0.181926
v 0.000000 1.437429 0.084099
v -0.011291 1.078072 0.177158
v -0.011291 1.437429 0.079331
v -0.015968 1.078072 0.165649
v -0.015968 1.437429 0.067820
v -0.011291 1.078072 0.154140
v -0.011291 1.437429 0.056310
v -0.011291 -0.000000 0.489499
v 0.000000 -0.359357 0.365891
v -0.011291 -0.359357 0.370696
v -0.015968 -0.000000 0.500875
v -0.015968 -0.359357 0.382304
v -0.011291 -0.359357 0.393905
v 0.000000 -0.359357 0.398704
v 0.011291 -0.359357 0.393905
v 0.015968 -0.359357 0.382304
v 0.011291 -0.359357 0.370696
v 0.000000 -0.718715 0.247205
v 0.011291 -1.078072 0.154140
v 0.000000 -1.078072 0.149373
v 0.011291 -0.718715 0.251998
v 0.015968 -1.078072 0.165649
v 0.015968 -0.718715 0.263570
v 0.011291 -1.078072 0.177158
v 0.011291 -0.718715 0.275143
v 0.000000 -1.078072 0.181926
v 0.000000 -0.718715 0.279937
v -0.011291 -1.078072 0.177158
v -0.011291 -0.718715 0.275143
v -0.015968 -1.078072 0.165649
v -0.015968 -0.718715 0.263570
v -0.011291 -1.078072 0.154140
v -0.011291 -0.718715 0.251998
v -0.011291 0.718715 0.251998
v 0.000000 0.359357 0.365891
v -0.011291 0.359357 0.370696
v -0.015968 0.718715 0.263570
v -0.015968 0.359357 0.382304
v -0.011291 0.718715 0.275143
v -0.011291 0.359357 0.393905
v 0.000000 0.718715 0.279937
v 0.000000 0.359357 0.398704
v 0.011291 0.718715 0.275143
v 0.011291 0.359357 0.393905
v 0.015968 0.718715 0.263570
v 0.015968 0.359357 0.382304
v 0.011291 0.718715 0.251998
v 0.011291 0.359357 0.370696
v 0.000000 0.718715 0.247205
v 0.011291 -0.000000 0.489499
v 0.015968 -0.000000 0.500875
v 0.011291 -0.000000 0.512250
v -0.011291 -0.000000 0.512250
v 0.000000 -0.000000 0.484787
v 0.000000 -0.000000 0.516962
vt 0.948425 0.039744
vt 0.948425 0.039744
vt 0.937924 0.039744
vt 0.950599 0.039744
vt 0.943174 0.039744
vt 0.935749 0.039744
vt 0.937924 0.039744
vt 0.943174 0.039744
vt 0.950599 0.955880
vt 0.948425 0.841363
vt 0.950599 0.841363
vt 0.948425 0.955881
vt 0.943174 0.841363
vt 0.943174 0.955881
vt 0.937924 0.841363
vt 0.937924 0.955881
vt 0.935749 0.841363
vt 0.935749 0.955881
vt 0.937924 0.841363
vt 0.937924 0.955881
vt 0.943174 0.841363
vt 0.943174 0.955881
vt 0.948425 0.841363
vt 0.948425 0.955881
vt 0.948425 0.497813
vt 0.950599 0.383296
vt 0.948425 0.383296
vt 0.943174 0.497813
vt 0.943174 0.383296
vt 0.937924 0.497813
vt 0.937924 0.383296
vt 0.935749 0.497813
vt 0.935749 0.383296
vt 0.937924 0.497813
vt 0.937924 0.383296
vt 0.943174 0.497813
vt 0.943174 0.383296
vt 0.948425 0.497813
vt 0.948425 0.383296
vt 0.950599 0.497813
vt 0.950599 0.268779
vt 0.948425 0.154261
vt 0.950599 0.154261
vt 0.948425 0.268779
vt 0.943174 0.154261
vt 0.943174 0.268779
vt 0.937924 0.154261
vt 0.937924 0.268779
vt 0.935749 0.154261
vt 0.935749 0.268779
vt 0.937924 0.154261
vt 0.937924 0.268779
vt 0.943174 0.154261
vt 0.943174 0.268779
vt 0.948425 0.154261
vt 0.948425 0.268779
vt 0.948425 0.726847
vt 0.950599 0.612330
vt 0.948425 0.612330
vt 0.943174 0.726847
vt 0.943174 0.612330
vt 0.937924 0.726847
vt 0.937924 0.612330
vt 0.935749 0.726847
vt 0.935749 0.612330
vt 0.937924 0.726847
vt 0.937924 0.612330
vt 0.943174 0.726847
vt 0.943174 0.612330
vt 0.948425 0.726847
vt 0.948425 0.612330
vt 0.950599 0.726847
vn 0.0000 -1.0000 0.0000
vn -0.0000 -0.2627 -0.9649
vn 0.7029 -0.1869 -0.6863
vn 0.6680 -0.1955 -0.7180
vn 1.0000 -0.0000 -0.0000
vn 0.9978 -0.0173 -0.0635
vn 0.7030 0.1870 0.6862
vn 0.7335 0.1785 0.6558
vn -0.0000 0.2629 0.9648
vn 0.0000 0.2627 0.9649
vn -0.7030 0.1869 0.6862
vn -0.7335 0.1785 0.6558
vn -1.0000 0.0000 -0.0000
vn 0.0000 1.0000 0.0000
vn -0.9978 -0.0173 -0.0635
vn -0.7029 -0.1868 -0.6863
vn -0.6680 -0.1955 -0.7180
vn -0.7496 0.0001 -0.6619
vn 0.0000 0.3138 -0.9495
vn -0.7009 0.2237 -0.6772
vn -0.9971 -0.0000 0.0767
vn -1.0000 -0.0000 0.0002
vn -0.6726 -0.0001 0.7400
vn -0.7007 -0.2235 0.6776
vn 0.0000 -0.0000 1.0000
vn -0.0000 -0.3132 0.9497
vn 0.6726 0.0001 0.7400
vn 0.7007 -0.2236 0.6775
vn 0.9971 0.0000 0.0767
vn 1.0000 0.0000 0.0001
vn 0.7496 -0.0001 -0.6619
vn 0.7009 0.2239 -0.6772
vn 0.0000 -0.0000 -1.0000
vn -0.0000 0.2865 -0.9581
vn 0.7029 0.1868 -0.6863
vn -0.0000 0.2627 -0.9649
vn 0.6992 0.2062 -0.6845
vn 1.0000 0.0039 -0.0062
vn 0.7030 -0.1869 0.6862
vn 0.7055 -0.2045 0.6785
vn 0.0000 -0.2629 0.9648
vn 0.0000 -0.2904 0.9569
vn -0.7030 -0.1870 0.6862
vn -0.7055 -0.2045 0.6785
vn -1.0000 0.0039 -0.0062
vn -0.7029 0.1869 -0.6863
vn -0.6993 0.2061 -0.6845
vn -0.6992 -0.2062 -0.6845
vn -0.0000 -0.3138 -0.9495
vn -0.7009 -0.2239 -0.6772
vn -1.0000 -0.0039 -0.0062
vn -1.0000 -0.0000 0.0001
vn -0.7055 0.2045 0.6785
vn -0.7007 0.2236 0.6775
vn -0.0000 0.2904 0.9569
vn 0.0000 0.3132 0.9497
vn 0.7055 0.2045 0.6785
vn 0.7007 0.2235 0.6776
vn 1.0000 -0.0039 -0.0062
vn 1.0000 0.0000 0.0002
vn 0.6993 -0.2061 -0.6845
vn 0.7009 -0.2237 -0.6772
vn 0.0000 -0.2865 -0.9581
vn -0.6680 0.1955 -0.7180
vn -0.9978 0.0173 -0.0635
vn -0.7335 -0.1785 0.6558
vn -0.0000 -0.2627 0.9649
vn 0.7335 -0.1785 0.6558
vn 0.9978 0.0173 -0.0635
vn 0.6680 0.1955 -0.7180
usemtl None.003
s off
f 1/1/1 2/2/1 3/3/1
f 1/1/1 4/4/1 2/2/1
f 2/2/1 5/5/1 3/3/1
f 3/3/1 6/6/1 7/7/1
f 7/7/1 8/8/1 3/3/1
f 8/8/1 1/1/1 3/3/1
s 1
f 9/9/2 10/10/3 11/11/2
f 12/12/4 13/13/5 10/10/3
f 14/14/6 15/15/7 13/13/5
f 16/16/8 17/17/9 15/15/7
f 18/18/10 19/19/11 17/17/9
f 20/20/12 21/21/13 19/19/11
f 16/16/14 14/14/14 22/22/14
f 22/22/15 23/23/16 21/21/13
f 24/24/17 11/11/2 23/23/16
f 25/25/18 26/26/19 27/27/20
f 28/28/21 27/27/20 29/29/22
f 70/30/23 29/29/22 30/31/24
f 72/32/25 30/31/24 31/33/26
f 69/34/27 31/33/26 32/35/28
f 68/36/29 32/35/28 33/37/30
f 67/38/31 33/37/30 34/39/32
f 71/40/33 34/39/32 26/26/19
f 35/41/34 36/42/35 37/43/36
f 38/44/37 39/45/5 36/42/35
f 40/46/38 41/47/39 39/45/5
f 42/48/40 43/49/41 41/47/39
f 44/50/42 45/51/43 43/49/41
f 46/52/44 47/53/13 45/51/43
f 48/54/45 49/55/46 47/53/13
f 50/56/47 37/43/36 49/55/46
f 51/57/48 52/58/49 53/59/50
f 54/60/51 53/59/50 55/61/52
f 56/62/53 55/61/52 57/63/54
f 58/64/55 57/63/54 59/65/56
f 60/66/57 59/65/56 61/67/58
f 62/68/59 61/67/58 63/69/60
f 64/70/61 63/69/60 65/71/62
f 66/72/63 65/71/62 52/58/49
f 26/26/19 38/44/37 35/41/34
f 34/39/32 40/46/38 38/44/37
f 33/37/30 42/48/40 40/46/38
f 32/35/28 44/50/42 42/48/40
f 31/33/26 46/52/44 44/50/42
f 30/31/24 48/54/45 46/52/44
f 29/29/22 50/56/47 48/54/45
f 27/27/20 35/41/34 50/56/47
f 52/58/49 67/38/31 71/40/33
f 65/71/62 68/36/29 67/38/31
f 63/69/60 69/34/27 68/36/29
f 61/67/58 72/32/25 69/34/27
f 59/65/56 70/30/23 72/32/25
f 57/63/54 28/28/21 70/30/23
f 55/61/52 25/25/18 28/28/21
f 53/59/50 71/40/33 25/25/18
f 49/55/46 4/4/36 1/1/64
f 47/53/13 1/1/64 8/8/65
f 45/51/43 8/8/65 7/7/66
f 43/49/41 7/7/66 6/6/67
f 41/47/39 6/6/67 3/3/68
f 39/45/5 3/3/68 5/5/69
f 36/42/35 5/5/69 2/2/70
f 37/43/36 2/2/70 4/4/36
f 23/23/16 66/72/63 51/57/48
f 21/21/13 51/57/48 54/60/51
f 19/19/11 54/60/51 56/62/53
f 17/17/9 56/62/53 58/64/55
f 15/15/7 58/64/55 60/66/57
f 13/13/5 60/66/57 62/68/59
f 10/10/3 62/68/59 64/70/61
f 11/11/2 64/70/61 66/72/63
f 9/9/2 12/12/4 10/10/3
f 12/12/4 14/14/6 13/13/5
f 14/14/6 16/16/8 15/15/7
f 16/16/8 18/18/10 17/17/9
f 18/18/10 20/20/12 19/19/11
f 20/20/12 22/22/15 21/21/13
f 14/14/14 12/12/14 22/22/14
f 12/12/14 9/9/14 22/22/14
f 9/9/14 24/24/14 22/22/14
f 22/22/14 20/20/14 18/18/14
f 18/18/14 16/16/14 22/22/14
f 22/22/15 24/24/17 23/23/16
f 24/24/17 9/9/2 11/11/2
f 25/25/18 71/40/33 26/26/19
f 28/28/21 25/25/18 27/27/20
f 70/30/23 28/28/21 29/29/22
f 72/32/25 70/30/23 30/31/24
f 69/34/27 72/32/25 31/33/26
f 68/36/29 69/34/27 32/35/28
f 67/38/31 68/36/29 33/37/30
f 71/40/33 67/38/31 34/39/32
f 35/41/34 38/44/37 36/42/35
f 38/44/37 40/46/38 39/45/5
f 40/46/38 42/48/40 41/47/39
f 42/48/40 44/50/42 43/49/41
f 44/50/42 46/52/44 45/51/43
f 46/52/44 48/54/45 47/53/13
f 48/54/45 50/56/47 49/55/46
f 50/56/47 35/41/34 37/43/36
f 51/57/48 66/72/63 52/58/49
f 54/60/51 51/57/48 53/59/50
f 56/62/53 54/60/51 55/61/52
f 58/64/55 56/62/53 57/63/54
f 60/66/57 58/64/55 59/65/56
f 62/68/59 60/66/57 61/67/58
f 64/70/61 62/68/59 63/69/60
f 66/72/63 64/70/61 65/71/62
f 26/26/19 34/39/32 38/44/37
f 34/39/32 33/37/30 40/46/38
f 33/37/30 32/35/28 42/48/40
f 32/35/28 31/33/26 44/50/42
f 31/33/26 30/31/24 46/52/44
f 30/31/24 29/29/22 48/54/45
f 29/29/22 27/27/20 50/56/47
f 27/27/20 26/26/19 35/41/34
f 52/58/49 65/71/62 67/38/31
f 65/71/62 63/69/60 68/36/29
f 63/69/60 61/67/58 69/34/27
f 61/67/58 59/65/56 72/32/25
f 59/65/56 57/63/54 70/30/23
f 57/63/54 55/61/52 28/28/21
f 55/61/52 53/59/50 25/25/18
f 53/59/50 52/58/49 71/40/33
f 49/55/46 37/43/36 4/4/36
f 47/53/13 49/55/46 1/1/64
f 45/51/43 47/53/13 8/8/65
f 43/49/41 45/51/43 7/7/66
f 41/47/39 43/49/41 6/6/67
f 39/45/5 41/47/39 3/3/68
f 36/42/35 39/45/5 5/5/69
f 37/43/36 36/42/35 2/2/70
f 23/23/16 11/11/2 66/72/63
f 21/21/13 23/23/16 51/57/48
f 19/19/11 21/21/13 54/60/51
f 17/17/9 19/19/11 56/62/53
f 15/15/7 17/17/9 58/64/55
f 13/13/5 15/15/7 60/66/57
f 10/10/3 13/13/5 62/68/59
f 11/11/2 10/10/3 64/70/61
