# Blender v2.83.0 OBJ File: 'bow_design_04.blend'
# www.blender.org
mtllib string_02.mtl
o bow_string_02_bow_string_02_bow_string_02_Cylinder.004
v -0.011291 -1.437429 0.060601
v 0.011291 -1.437429 0.060601
v 0.011291 -1.437429 0.083159
v 0.000000 -1.437429 0.055929
v 0.015968 -1.437429 0.071880
v 0.000000 -1.437429 0.087831
v -0.011291 -1.437429 0.083159
v -0.015968 -1.437429 0.071880
v 0.000000 1.437429 0.055929
v 0.011291 1.078072 0.088295
v 0.000000 1.078072 0.083621
v 0.011291 1.437429 0.060601
v 0.015968 1.078072 0.099576
v 0.015968 1.437429 0.071880
v 0.011291 1.078072 0.110859
v 0.011291 1.437429 0.083159
v 0.000000 1.078072 0.115533
v 0.000000 1.437429 0.087831
v -0.011291 1.078072 0.110859
v -0.011291 1.437429 0.083159
v -0.015968 1.078072 0.099576
v -0.015968 1.437429 0.071880
v -0.011291 1.078072 0.088295
v -0.011291 1.437429 0.060601
v -0.011291 -0.000000 0.192928
v 0.000000 -0.359357 0.149774
v -0.011291 -0.359357 0.154453
v -0.015968 -0.000000 0.204231
v -0.015968 -0.359357 0.165751
v -0.011291 -0.359357 0.177051
v 0.000000 -0.359357 0.181731
v 0.011291 -0.359357 0.177051
v 0.015968 -0.359357 0.165751
v 0.011291 -0.359357 0.154453
v 0.000000 -0.718715 0.111313
v 0.011291 -1.078072 0.088295
v 0.000000 -1.078072 0.083621
v 0.011291 -0.718715 0.115990
v 0.015968 -1.078072 0.099576
v 0.015968 -0.718715 0.127280
v 0.011291 -1.078072 0.110859
v 0.011291 -0.718715 0.138571
v 0.000000 -1.078072 0.115533
v 0.000000 -0.718715 0.143248
v -0.011291 -1.078072 0.110859
v -0.011291 -0.718715 0.138571
v -0.015968 -1.078072 0.099576
v -0.015968 -0.718715 0.127280
v -0.011291 -1.078072 0.088295
v -0.011291 -0.718715 0.115990
v -0.011291 0.718715 0.115990
v 0.000000 0.359357 0.149774
v -0.011291 0.359357 0.154453
v -0.015968 0.718715 0.127280
v -0.015968 0.359357 0.165751
v -0.011291 0.718715 0.138571
v -0.011291 0.359357 0.177051
v 0.000000 0.718715 0.143248
v 0.000000 0.359357 0.181731
v 0.011291 0.718715 0.138571
v 0.011291 0.359357 0.177051
v 0.015968 0.718715 0.127280
v 0.015968 0.359357 0.165751
v 0.011291 0.718715 0.115990
v 0.011291 0.359357 0.154453
v 0.000000 0.718715 0.111313
v 0.011291 -0.000000 0.192928
v 0.015968 -0.000000 0.204231
v 0.011291 -0.000000 0.215533
v -0.011291 -0.000000 0.215533
v 0.000000 -0.000000 0.188246
v 0.000000 -0.000000 0.220215
vt 0.948425 0.039744
vt 0.948425 0.039744
vt 0.937924 0.039744
vt 0.950599 0.039744
vt 0.943174 0.039744
vt 0.935749 0.039744
vt 0.937924 0.039744
vt 0.943174 0.039744
vt 0.950599 0.955880
vt 0.948425 0.841363
vt 0.950599 0.841363
vt 0.948425 0.955881
vt 0.943174 0.841363
vt 0.943174 0.955881
vt 0.937924 0.841363
vt 0.937924 0.955881
vt 0.935749 0.841363
vt 0.935749 0.955881
vt 0.937924 0.841363
vt 0.937924 0.955881
vt 0.943174 0.841363
vt 0.943174 0.955881
vt 0.948425 0.841363
vt 0.948425 0.955881
vt 0.948425 0.497813
vt 0.950599 0.383296
vt 0.948425 0.383296
vt 0.943174 0.497813
vt 0.943174 0.383296
vt 0.937924 0.497813
vt 0.937924 0.383296
vt 0.935749 0.497813
vt 0.935749 0.383296
vt 0.937924 0.497813
vt 0.937924 0.383296
vt 0.943174 0.497813
vt 0.943174 0.383296
vt 0.948425 0.497813
vt 0.948425 0.383296
vt 0.950599 0.497813
vt 0.950599 0.268779
vt 0.948425 0.154261
vt 0.950599 0.154261
vt 0.948425 0.268779
vt 0.943174 0.154261
vt 0.943174 0.268779
vt 0.937924 0.154261
vt 0.937924 0.268779
vt 0.935749 0.154261
vt 0.935749 0.268779
vt 0.937924 0.154261
vt 0.937924 0.268779
vt 0.943174 0.154261
vt 0.943174 0.268779
vt 0.948425 0.154261
vt 0.948425 0.268779
vt 0.948425 0.726847
vt 0.950599 0.612330
vt 0.948425 0.612330
vt 0.943174 0.726847
vt 0.943174 0.612330
vt 0.937924 0.726847
vt 0.937924 0.612330
vt 0.935749 0.726847
vt 0.935749 0.612330
vt 0.937924 0.726847
vt 0.937924 0.612330
vt 0.943174 0.726847
vt 0.943174 0.612330
vt 0.948425 0.726847
vt 0.948425 0.612330
vt 0.950599 0.726847
vn 0.0000 -1.0000 0.0000
vn 0.0000 -0.0768 -0.9970
vn 0.7062 -0.0544 -0.7059
vn 0.6965 -0.0551 -0.7154
vn 1.0000 -0.0000 -0.0000
vn 0.9998 -0.0014 -0.0188
vn 0.7062 0.0544 0.7059
vn 0.7153 0.0537 0.6968
vn -0.0000 0.0769 0.9970
vn -0.7062 0.0544 0.7059
vn -0.7153 0.0537 0.6968
vn -1.0000 0.0000 -0.0000
vn 0.0000 1.0000 0.0000
vn -0.9998 -0.0014 -0.0188
vn -0.7062 -0.0544 -0.7059
vn -0.6965 -0.0551 -0.7154
vn -0.7206 -0.0000 -0.6934
vn -0.0000 0.1064 -0.9943
vn -0.7058 0.0754 -0.7044
vn -0.9997 -0.0000 0.0260
vn -0.6946 0.0000 0.7194
vn -0.7059 -0.0754 0.7043
vn 0.0000 -0.0000 1.0000
vn 0.0000 -0.1065 0.9943
vn 0.6946 -0.0000 0.7194
vn 0.7059 -0.0754 0.7043
vn 0.9997 0.0000 0.0260
vn 0.7206 0.0000 -0.6934
vn 0.7058 0.0754 -0.7044
vn 0.0000 0.0000 -1.0000
vn -0.0000 0.0913 -0.9958
vn 0.7062 0.0544 -0.7059
vn -0.0000 0.0768 -0.9970
vn 0.7042 0.0651 -0.7070
vn 1.0000 0.0007 -0.0036
vn 0.7062 -0.0544 0.7059
vn 0.7079 -0.0648 0.7034
vn 0.0000 -0.0769 0.9970
vn 0.0000 -0.0920 0.9958
vn -0.7062 -0.0544 0.7059
vn -0.7079 -0.0648 0.7034
vn -1.0000 0.0007 -0.0036
vn -0.7062 0.0544 -0.7059
vn -0.7042 0.0651 -0.7070
vn -0.7042 -0.0651 -0.7070
vn 0.0000 -0.1064 -0.9943
vn -0.7058 -0.0754 -0.7044
vn -1.0000 -0.0007 -0.0036
vn -0.7079 0.0648 0.7034
vn -0.7059 0.0754 0.7043
vn -0.0000 0.0920 0.9958
vn -0.0000 0.1065 0.9943
vn 0.7079 0.0648 0.7034
vn 0.7059 0.0754 0.7043
vn 1.0000 -0.0007 -0.0036
vn 0.7042 -0.0651 -0.7070
vn 0.7058 -0.0754 -0.7044
vn 0.0000 -0.0913 -0.9958
vn -0.6965 0.0551 -0.7154
vn -0.9998 0.0014 -0.0188
vn -0.7153 -0.0537 0.6968
vn 0.7153 -0.0537 0.6968
vn 0.9998 0.0014 -0.0188
vn 0.6965 0.0551 -0.7154
usemtl None.001
s off
f 1/1/1 2/2/1 3/3/1
f 1/1/1 4/4/1 2/2/1
f 2/2/1 5/5/1 3/3/1
f 3/3/1 6/6/1 7/7/1
f 7/7/1 8/8/1 3/3/1
f 8/8/1 1/1/1 3/3/1
s 1
f 9/9/2 10/10/3 11/11/2
f 12/12/4 13/13/5 10/10/3
f 14/14/6 15/15/7 13/13/5
f 16/16/8 17/17/9 15/15/7
f 18/18/9 19/19/10 17/17/9
f 20/20/11 21/21/12 19/19/10
f 16/16/13 14/14/13 22/22/13
f 22/22/14 23/23/15 21/21/12
f 24/24/16 11/11/2 23/23/15
f 25/25/17 26/26/18 27/27/19
f 28/28/20 27/27/19 29/29/12
f 70/30/21 29/29/12 30/31/22
f 72/32/23 30/31/22 31/33/24
f 69/34/25 31/33/24 32/35/26
f 68/36/27 32/35/26 33/37/5
f 67/38/28 33/37/5 34/39/29
f 71/40/30 34/39/29 26/26/18
f 35/41/31 36/42/32 37/43/33
f 38/44/34 39/45/5 36/42/32
f 40/46/35 41/47/36 39/45/5
f 42/48/37 43/49/38 41/47/36
f 44/50/39 45/51/40 43/49/38
f 46/52/41 47/53/12 45/51/40
f 48/54/42 49/55/43 47/53/12
f 50/56/44 37/43/33 49/55/43
f 51/57/45 52/58/46 53/59/47
f 54/60/48 53/59/47 55/61/12
f 56/62/49 55/61/12 57/63/50
f 58/64/51 57/63/50 59/65/52
f 60/66/53 59/65/52 61/67/54
f 62/68/55 61/67/54 63/69/5
f 64/70/56 63/69/5 65/71/57
f 66/72/58 65/71/57 52/58/46
f 26/26/18 38/44/34 35/41/31
f 34/39/29 40/46/35 38/44/34
f 33/37/5 42/48/37 40/46/35
f 32/35/26 44/50/39 42/48/37
f 31/33/24 46/52/41 44/50/39
f 30/31/22 48/54/42 46/52/41
f 29/29/12 50/56/44 48/54/42
f 27/27/19 35/41/31 50/56/44
f 52/58/46 67/38/28 71/40/30
f 65/71/57 68/36/27 67/38/28
f 63/69/5 69/34/25 68/36/27
f 61/67/54 72/32/23 69/34/25
f 59/65/52 70/30/21 72/32/23
f 57/63/50 28/28/20 70/30/21
f 55/61/12 25/25/17 28/28/20
f 53/59/47 71/40/30 25/25/17
f 49/55/43 4/4/33 1/1/59
f 47/53/12 1/1/59 8/8/60
f 45/51/40 8/8/60 7/7/61
f 43/49/38 7/7/61 6/6/38
f 41/47/36 6/6/38 3/3/62
f 39/45/5 3/3/62 5/5/63
f 36/42/32 5/5/63 2/2/64
f 37/43/33 2/2/64 4/4/33
f 23/23/15 66/72/58 51/57/45
f 21/21/12 51/57/45 54/60/48
f 19/19/10 54/60/48 56/62/49
f 17/17/9 56/62/49 58/64/51
f 15/15/7 58/64/51 60/66/53
f 13/13/5 60/66/53 62/68/55
f 10/10/3 62/68/55 64/70/56
f 11/11/2 64/70/56 66/72/58
f 9/9/2 12/12/4 10/10/3
f 12/12/4 14/14/6 13/13/5
f 14/14/6 16/16/8 15/15/7
f 16/16/8 18/18/9 17/17/9
f 18/18/9 20/20/11 19/19/10
f 20/20/11 22/22/14 21/21/12
f 14/14/13 12/12/13 22/22/13
f 12/12/13 9/9/13 22/22/13
f 9/9/13 24/24/13 22/22/13
f 22/22/13 20/20/13 18/18/13
f 18/18/13 16/16/13 22/22/13
f 22/22/14 24/24/16 23/23/15
f 24/24/16 9/9/2 11/11/2
f 25/25/17 71/40/30 26/26/18
f 28/28/20 25/25/17 27/27/19
f 70/30/21 28/28/20 29/29/12
f 72/32/23 70/30/21 30/31/22
f 69/34/25 72/32/23 31/33/24
f 68/36/27 69/34/25 32/35/26
f 67/38/28 68/36/27 33/37/5
f 71/40/30 67/38/28 34/39/29
f 35/41/31 38/44/34 36/42/32
f 38/44/34 40/46/35 39/45/5
f 40/46/35 42/48/37 41/47/36
f 42/48/37 44/50/39 43/49/38
f 44/50/39 46/52/41 45/51/40
f 46/52/41 48/54/42 47/53/12
f 48/54/42 50/56/44 49/55/43
f 50/56/44 35/41/31 37/43/33
f 51/57/45 66/72/58 52/58/46
f 54/60/48 51/57/45 53/59/47
f 56/62/49 54/60/48 55/61/12
f 58/64/51 56/62/49 57/63/50
f 60/66/53 58/64/51 59/65/52
f 62/68/55 60/66/53 61/67/54
f 64/70/56 62/68/55 63/69/5
f 66/72/58 64/70/56 65/71/57
f 26/26/18 34/39/29 38/44/34
f 34/39/29 33/37/5 40/46/35
f 33/37/5 32/35/26 42/48/37
f 32/35/26 31/33/24 44/50/39
f 31/33/24 30/31/22 46/52/41
f 30/31/22 29/29/12 48/54/42
f 29/29/12 27/27/19 50/56/44
f 27/27/19 26/26/18 35/41/31
f 52/58/46 65/71/57 67/38/28
f 65/71/57 63/69/5 68/36/27
f 63/69/5 61/67/54 69/34/25
f 61/67/54 59/65/52 72/32/23
f 59/65/52 57/63/50 70/30/21
f 57/63/50 55/61/12 28/28/20
f 55/61/12 53/59/47 25/25/17
f 53/59/47 52/58/46 71/40/30
f 49/55/43 37/43/33 4/4/33
f 47/53/12 49/55/43 1/1/59
f 45/51/40 47/53/12 8/8/60
f 43/49/38 45/51/40 7/7/61
f 41/47/36 43/49/38 6/6/38
f 39/45/5 41/47/36 3/3/62
f 36/42/32 39/45/5 5/5/63
f 37/43/33 36/42/32 2/2/64
f 23/23/15 11/11/2 66/72/58
f 21/21/12 23/23/15 51/57/45
f 19/19/10 21/21/12 54/60/48
f 17/17/9 19/19/10 56/62/49
f 15/15/7 17/17/9 58/64/51
f 13/13/5 15/15/7 60/66/53
f 10/10/3 13/13/5 62/68/55
f 11/11/2 10/10/3 64/70/56
